<?xml version="1.0" encoding="UTF-8"?>
<svg xmlns="http://www.w3.org/2000/svg" xmlns:xlink="http://www.w3.org/1999/xlink" viewBox="0 0 969.03 476.19">
  <defs>
    <style>
      .cls-1 {
        fill: #03a3aa;
      }

      .cls-2 {
        fill: #011c44;
      }

      .cls-3 {
        fill: #50f39c;
      }

      .cls-4 {
        stroke: #011c44;
      }

      .cls-4, .cls-5 {
        fill: none;
        stroke-linecap: round;
        stroke-linejoin: round;
        stroke-width: 28px;
      }

      .cls-6 {
        fill: #18d092;
      }

      .cls-7 {
        fill: #fdfdfd;
      }

      .cls-5 {
        stroke: url(#Unbenannter_Verlauf_105);
      }
    </style>
    <linearGradient id="Unbenannter_Verlauf_105" data-name="Unbenannter Verlauf 105" x1="519.92" y1="154.51" x2="606.43" y2="304.34" gradientUnits="userSpaceOnUse">
      <stop offset="0" stop-color="#02a1a9"/>
      <stop offset=".5" stop-color="#03a3a8"/>
      <stop offset="1" stop-color="#13cd91"/>
    </linearGradient>
  </defs>
  <g id="Ebene_1" data-name="Ebene 1">
    <g>
      <path class="cls-2" d="M147.59,374.17v52.56h-19.87v-48.67c0-9.5-3.46-14.26-11.95-14.26s-13.1,6.34-13.1,13.68v49.25h-19.87v-48.67c0-9.5-3.46-14.26-12.1-14.26s-13.1,6.91-13.1,14.54v48.38h-19.87v-79.2h15.41l2.16,11.23h.43c4.03-7.2,11.09-13.1,21.6-13.1,11.23,0,18.29,5.18,22.18,13.54,5.04-8.35,12.53-13.54,22.75-13.54,17.28,0,25.34,11.38,25.34,28.51Z"/>
      <path class="cls-2" d="M157.53,387.42c0-25.34,17.71-41.76,39.31-41.76,19.73,0,35.85,13.82,35.85,40.03,0,2.74-.29,5.04-.58,7.2h-55.44c2.74,12.82,12.96,19.73,25.92,19.73,8.78,0,17.42-3.17,25.2-8.64v16.99c-8.06,5.04-17.42,7.78-27.5,7.78-26.78,0-42.77-17.14-42.77-41.33ZM213.69,380.36c-.29-12.24-7.78-18.72-16.99-18.72-9.79,0-18.14,7.2-20.3,18.72h37.3Z"/>
      <path class="cls-2" d="M312.91,373.88v52.85h-19.87v-46.8c0-10.94-4.9-16.13-14.4-16.13s-15.7,6.48-15.7,15.55v47.38h-19.87v-79.2h15.41l2.16,11.38h.43c4.61-7.34,12.96-13.25,23.9-13.25,17.28,0,27.94,10.8,27.94,28.22Z"/>
      <path class="cls-2" d="M350.49,347.53h21.6v16.56h-21.6v31.97c0,10.66,6.77,14.83,15.98,14.83,2.16,0,4.61-.29,7.06-.72v16.99c-2.59.58-6.19,1.15-11.38,1.15-19.73,0-30.96-11.81-30.96-31.25v-32.98h-11.52v-16.56h11.66v-18.43h19.15v18.43Z"/>
      <path class="cls-2" d="M377.13,387.13c0-24.34,17.86-41.47,40.9-41.47s40.75,17.14,40.75,41.47-17.57,41.62-40.75,41.62-40.9-17.28-40.9-41.62ZM418.03,410.6c10.66,0,20.74-8.64,20.74-23.47s-10.08-23.47-20.74-23.47-20.88,8.5-20.88,23.47,10.22,23.47,20.88,23.47Z"/>
      <path class="cls-2" d="M469.29,347.53h15.84l2.02,12.1h.29c5.33-9.79,14.83-12.96,21.89-12.96,2.16,0,4.03.14,5.76.58v18.58c-2.16-.43-4.18-.58-6.34-.58-9.94,0-19.58,5.62-19.58,20.74v40.75h-19.87v-79.2Z"/>
      <path class="cls-1" d="M631.86,374.17v52.56h-19.87v-48.67c0-9.5-3.46-14.26-11.95-14.26s-13.1,6.34-13.1,13.68v49.25h-19.87v-48.67c0-9.5-3.46-14.26-12.1-14.26s-13.1,6.91-13.1,14.54v48.38h-19.87v-79.2h15.41l2.16,11.23h.43c4.03-7.2,11.09-13.1,21.6-13.1,11.23,0,18.29,5.18,22.18,13.54,5.04-8.35,12.53-13.54,22.75-13.54,17.28,0,25.34,11.38,25.34,28.51Z"/>
      <path class="cls-1" d="M641.8,387.28c0-25.2,17.42-41.62,35.42-41.62,11.66,0,21.17,5.76,26.64,14.83h.14l2.02-12.96h16.7v79.2h-16.7l-2.02-12.96h-.14c-5.47,9.07-14.98,14.98-26.64,14.98-18,0-35.42-16.56-35.42-41.47ZM682.69,410.6c11.66,0,20.45-9.65,20.45-23.47s-8.78-23.47-20.45-23.47-20.88,9.79-20.88,23.47,8.93,23.47,20.88,23.47Z"/>
      <path class="cls-1" d="M761.46,347.53h21.6v16.56h-21.6v31.97c0,10.66,6.77,14.83,15.98,14.83,2.16,0,4.61-.29,7.06-.72v16.99c-2.59.58-6.19,1.15-11.38,1.15-19.73,0-30.96-11.81-30.96-31.25v-32.98h-11.52v-16.56h11.66v-18.43h19.15v18.43Z"/>
      <path class="cls-6" d="M831.73,410.6c6.34,0,13.68-1.3,20.3-6.05v18.58c-6.34,3.46-14.4,5.62-22.9,5.62-23.33,0-41.04-17.57-41.04-41.76s17.86-41.33,41.04-41.33c8.06,0,16.27,1.58,22.9,5.47v18.72c-6.62-4.46-12.96-6.19-20.45-6.19-12.53,0-23.47,8.93-23.47,23.47s10.94,23.47,23.62,23.47Z"/>
      <path class="cls-6" d="M883.43,355.74h.29c4.46-5.9,12.38-10.08,21.6-10.08,17.14,0,28.08,9.94,28.08,28.37v52.7h-19.87v-46.94c0-10.94-4.75-16.13-14.26-16.13-8.78,0-15.84,5.18-15.84,15.26v47.81h-19.87v-115.49h19.87v44.5Z"/>
    </g>
  </g>
  <g id="Ebene_2" data-name="Ebene 2">
    <g>
      <rect class="cls-7" x="289.07" width="412.22" height="319.24"/>
      <path class="cls-4" d="M333.33,284.19v-124.9c0-9.17,7.43-16.61,16.61-16.61h23.87c4.21,0,8.27,1.6,11.35,4.48l88.13,88.13"/>
      <rect class="cls-2" x="444.87" y="226.74" width="56.83" height="56.83" transform="translate(319.05 -259.93) rotate(45)"/>
      <circle class="cls-2" cx="349.88" cy="79" r="32.8"/>
      <circle class="cls-1" cx="591.81" cy="76.68" r="32.8"/>
      <path class="cls-5" d="M613.32,284.19v-124.9c0-9.17-7.43-16.61-16.61-16.61h-23.87c-4.21,0-8.27,1.6-11.35,4.48l-88.13,88.13"/>
      <rect class="cls-3" x="459.29" y="221.36" width="28" height="28" transform="translate(974.38 67.12) rotate(135)"/>
    </g>
  </g>
</svg>