<?xml version="1.0" encoding="UTF-8"?>
<svg xmlns="http://www.w3.org/2000/svg" viewBox="0 0 312.11 321.03">
  <defs>
    <style>
      .cls-1 {
        fill: #03a3aa;
      }

      .cls-2 {
        stroke: #03a3aa;
      }

      .cls-2, .cls-3 {
        fill: none;
        stroke-linecap: round;
        stroke-linejoin: round;
        stroke-width: 28px;
      }

      .cls-4 {
        fill: #011c44;
      }

      .cls-5 {
        fill: #50f39c;
      }

      .cls-3 {
        stroke: #011c44;
      }
    </style>
  </defs>
  <g id="Ebene_1" data-name="Ebene 1">
    <g>
      <path class="cls-1" d="M92.25,287.45h-5.4l4.4-29.79h6.64l6.96,21.28h.04l6.76-21.28h6.6l4.36,29.79h-5.44l-2.84-22.04h-.12l-7.08,22.04h-4.84l-7.04-21.92h-.12l-2.88,21.92Z"/>
      <path class="cls-1" d="M146.29,287.45l-2.92-7.84h-11.68l-2.88,7.84h-5.84l11.32-29.79h6.44l11.44,29.79h-5.88ZM141.73,274.9l-4.24-11.32-4.2,11.32h8.44Z"/>
      <path class="cls-1" d="M157.49,262.78h-8.96v-5.12h23.48v5.12h-8.92v24.68h-5.6v-24.68Z"/>
      <path class="cls-1" d="M187.01,288.09c-8.08,0-15.16-6.12-15.16-15.56s7.08-15.56,15.16-15.56c3.44,0,6.04.92,8.08,2.04v5.64c-2.36-1.56-4.56-2.44-7.56-2.44-5.24,0-9.96,3.96-9.96,10.32s4.72,10.36,9.96,10.36c3,0,5.2-1,7.56-2.56v5.72c-2.04,1.12-4.64,2.04-8.08,2.04Z"/>
      <path class="cls-1" d="M217.81,275.06h-13.36v12.4h-5.6v-29.79h5.6v12.24h13.36v-12.24h5.6v29.79h-5.6v-12.4Z"/>
    </g>
    <g>
      <path class="cls-4" d="M91.36,250.49h-4.46l3.63-24.59h5.48l5.74,17.56h.03l5.58-17.56h5.45l3.6,24.59h-4.49l-2.34-18.19h-.1l-5.84,18.19h-3.99l-5.81-18.09h-.1l-2.38,18.09Z"/>
      <path class="cls-4" d="M119.38,225.9h14.82v4.19h-10.2v5.97h9.34v3.89h-9.34v6.34h10.2v4.19h-14.82v-24.59Z"/>
      <path class="cls-4" d="M158.42,250.49h-4.36l-11.82-17.23h-.03v17.23h-4.46v-24.59h4.52l11.65,16.9h.03v-16.9h4.46v24.59Z"/>
      <path class="cls-4" d="M168.08,230.13h-7.39v-4.22h19.37v4.22h-7.36v20.36h-4.62v-20.36Z"/>
      <path class="cls-4" d="M192.5,225.34c7.13,0,12.51,5.45,12.51,12.84s-5.38,12.87-12.51,12.87-12.57-5.45-12.57-12.87,5.41-12.84,12.57-12.84ZM200.33,238.18c0-5.41-3.83-8.55-7.82-8.55s-7.85,3.14-7.85,8.55,3.79,8.58,7.85,8.58,7.82-3.14,7.82-8.58Z"/>
      <path class="cls-4" d="M208.05,225.9h7.36c5.87,0,9.34,2.9,9.34,7.76,0,3.27-1.85,6.54-6.8,7.49l7.92,9.34h-5.64l-7.29-9.08h-.26v9.08h-4.62v-24.59ZM215.11,237.78c3.33,0,4.95-1.48,4.95-3.86s-1.78-3.8-4.79-3.8h-2.61v7.66h2.44Z"/>
    </g>
  </g>
  <g id="Ebene_2" data-name="Ebene 2">
    <g>
      <rect class="cls-4" x="127.64" y="142.87" width="56.83" height="56.83" transform="translate(166.83 -60.18) rotate(45)"/>
      <g>
        <circle class="cls-4" cx="71.02" cy="53.69" r="19.75"/>
        <circle class="cls-1" cx="241.09" cy="53.69" r="19.75"/>
      </g>
      <g>
        <path class="cls-3" d="M55.75,275.45V115.11c0-9.17,7.43-16.61,16.61-16.61h23.87c4.21,0,8.27,1.6,11.35,4.48l48.44,48.51"/>
        <path class="cls-2" d="M256.36,277.43V115.11c0-9.17-7.43-16.61-16.61-16.61h-23.87c-4.21,0-8.27,1.6-11.35,4.48l-48.52,48.51"/>
      </g>
      <rect class="cls-5" x="142.05" y="137.49" width="28" height="28" transform="translate(373.52 148.26) rotate(135)"/>
    </g>
  </g>
</svg>